<svg width="450" height="512" viewBox="0 0 512 512" fill="none" xmlns="http://www.w3.org/2000/svg">
<g clip-path="url(#clip0_474_11502)">
<path d="M254.89 512.192L247.338 508.843C238.933 505.152 42.666 416.512 42.666 256V116.821C42.6735 103.428 46.9067 90.3777 54.7629 79.53C62.619 68.6823 73.6975 60.5899 86.4207 56.4052L255.999 0.191895L425.578 56.4052C438.301 60.5899 449.38 68.6823 457.236 79.53C465.092 90.3777 469.325 103.428 469.333 116.821V256C469.333 438.976 271.189 506.773 262.741 509.589L254.89 512.192ZM255.999 44.9279L99.9247 96.6826C95.6782 98.0696 91.9795 100.765 89.3584 104.382C86.7372 108 85.3281 112.354 85.3327 116.821V256C85.3327 373.205 222.719 449.237 257.002 466.368C291.221 452.608 426.666 389.611 426.666 256V116.821C426.671 112.354 425.261 108 422.64 104.382C420.019 100.765 416.321 98.0696 412.074 96.6826L255.999 44.9279Z" fill="#FFCC48"/>
<path d="M237.033 310.229H236.329C230.93 310.147 225.603 308.97 220.671 306.77C215.739 304.57 211.305 301.392 207.636 297.429L158.441 246.229L189.183 216.747L237.055 266.667L347.583 156.139L377.748 186.304L265.513 298.539C261.775 302.274 257.333 305.23 252.445 307.237C247.556 309.244 242.318 310.261 237.033 310.229Z" fill="#FFCC48"/>
</g>
<defs>
<clipPath id="clip0_474_11502">
<rect width="512" height="512" fill="white"/>
</clipPath>
</defs>
</svg>
